<svg width="64" height="64" viewBox="0 0 64 64" fill="none" xmlns="http://www.w3.org/2000/svg" role="img" aria-label="Section 22">
  <path d="M11.8 17.2C17.4 8.2 28.7 5.4 39.6 8.1C50.8 10.9 57.6 20.3 56.4 32.2C55.3 43.5 47.1 55.9 33.9 57.1C21.4 58.2 10.4 50.2 7.8 38.8C5.9 30.6 7.4 24.2 11.8 17.2Z" fill="#EB5B23"/>
  <path d="M10.3 14.1C16.5 5.4 29.2 3.9 40.2 7.6C51 11.3 57.2 20 55.1 32.7C53.2 44.3 44.9 53.8 32.4 54.7C20.6 55.5 10.6 48.1 7.8 37.4C5.5 28.9 6 20.2 10.3 14.1Z" fill="#F3B915" stroke="#171915" stroke-width="3.4" stroke-linejoin="round"/>
  <path d="M13.2 17C19.6 9.2 29 8 38.1 10.6C47.4 13.3 52.5 21.2 51.2 31.1C49.9 40.5 43 48.4 32.6 49.1C22.7 49.8 14.6 43.9 12.1 35.1C10.3 28.5 9.8 21.2 13.2 17Z" stroke="#FFD95E" stroke-width="3.2" stroke-linejoin="round"/>
  <text x="31.5" y="39.5" fill="#171915" text-anchor="middle" font-family="Arial Black, Arial, sans-serif" font-size="24" font-weight="900" letter-spacing="-2">22</text>
</svg>
